<mxfile host="app.diagrams.net" modified="2020-08-06T09:30:24.889Z" agent="5.0 (Windows NT 10.0; Win64; x64) AppleWebKit/537.36 (KHTML, like Gecko) Chrome/84.0.4147.89 Safari/537.36" etag="f9_WAf9mvoLWqWDo5QQJ" version="13.6.0" type="github">
  <diagram id="fPvwmURBNc2VDs9Hdo4-" name="Page-1">
    <mxGraphModel dx="1422" dy="713" grid="1" gridSize="10" guides="1" tooltips="1" connect="1" arrows="1" fold="1" page="1" pageScale="1" pageWidth="1169" pageHeight="827" math="0" shadow="0">
      <root>
        <mxCell id="0" />
        <mxCell id="1" parent="0" />
        <mxCell id="feKmnWWnFq79KnzARr8Q-1" value="" style="rounded=0;whiteSpace=wrap;html=1;" vertex="1" parent="1">
          <mxGeometry x="270" y="120" width="330" height="390" as="geometry" />
        </mxCell>
        <mxCell id="feKmnWWnFq79KnzARr8Q-2" value="&lt;font style=&quot;font-size: 21px&quot;&gt;&lt;b&gt;item 1&lt;/b&gt;&lt;/font&gt;" style="rounded=0;whiteSpace=wrap;html=1;fillColor=#dae8fc;strokeColor=#6c8ebf;" vertex="1" parent="1">
          <mxGeometry x="280" y="130" width="310" height="40" as="geometry" />
        </mxCell>
        <mxCell id="feKmnWWnFq79KnzARr8Q-3" value="&lt;font style=&quot;font-size: 21px&quot;&gt;&lt;b&gt;item 2&lt;/b&gt;&lt;/font&gt;" style="rounded=0;whiteSpace=wrap;html=1;fillColor=#dae8fc;strokeColor=#6c8ebf;" vertex="1" parent="1">
          <mxGeometry x="280" y="180" width="310" height="40" as="geometry" />
        </mxCell>
        <mxCell id="feKmnWWnFq79KnzARr8Q-4" value="&lt;font style=&quot;font-size: 21px&quot;&gt;&lt;b&gt;item N&lt;/b&gt;&lt;/font&gt;" style="rounded=0;whiteSpace=wrap;html=1;fillColor=#dae8fc;strokeColor=#6c8ebf;" vertex="1" parent="1">
          <mxGeometry x="280" y="330" width="310" height="40" as="geometry" />
        </mxCell>
        <mxCell id="feKmnWWnFq79KnzARr8Q-5" value="&lt;b&gt;&lt;font style=&quot;font-size: 21px&quot;&gt;State&lt;/font&gt;&lt;/b&gt;" style="rounded=0;whiteSpace=wrap;html=1;fillColor=#d5e8d4;strokeColor=#82b366;" vertex="1" parent="1">
          <mxGeometry x="280" y="420" width="310" height="80" as="geometry" />
        </mxCell>
        <mxCell id="feKmnWWnFq79KnzARr8Q-6" value="&lt;font style=&quot;font-size: 21px&quot;&gt;&lt;b&gt;item 3&lt;/b&gt;&lt;/font&gt;" style="rounded=0;whiteSpace=wrap;html=1;fillColor=#dae8fc;strokeColor=#6c8ebf;" vertex="1" parent="1">
          <mxGeometry x="280" y="230" width="310" height="40" as="geometry" />
        </mxCell>
        <mxCell id="feKmnWWnFq79KnzARr8Q-7" value="&lt;font style=&quot;font-size: 21px&quot;&gt;&lt;b&gt;item 4&lt;/b&gt;&lt;/font&gt;" style="rounded=0;whiteSpace=wrap;html=1;fillColor=#dae8fc;strokeColor=#6c8ebf;" vertex="1" parent="1">
          <mxGeometry x="280" y="280" width="310" height="40" as="geometry" />
        </mxCell>
        <mxCell id="feKmnWWnFq79KnzARr8Q-8" value="&lt;b&gt;&lt;font style=&quot;font-size: 20px&quot;&gt;列表&lt;/font&gt;&lt;/b&gt;" style="text;html=1;strokeColor=none;fillColor=none;align=center;verticalAlign=middle;whiteSpace=wrap;rounded=0;" vertex="1" parent="1">
          <mxGeometry x="385" y="530" width="100" height="30" as="geometry" />
        </mxCell>
        <mxCell id="feKmnWWnFq79KnzARr8Q-9" value="&lt;font style=&quot;font-size: 19px&quot;&gt;&lt;b&gt;Audio&lt;/b&gt;&lt;/font&gt;" style="whiteSpace=wrap;html=1;aspect=fixed;fillColor=#e1d5e7;strokeColor=#9673a6;" vertex="1" parent="1">
          <mxGeometry x="670" y="415" width="90" height="90" as="geometry" />
        </mxCell>
        <mxCell id="feKmnWWnFq79KnzARr8Q-11" value="" style="shape=flexArrow;endArrow=classic;startArrow=classic;html=1;exitX=1;exitY=0.5;exitDx=0;exitDy=0;entryX=0;entryY=0.5;entryDx=0;entryDy=0;fillColor=#fff2cc;strokeColor=#d6b656;" edge="1" parent="1" source="feKmnWWnFq79KnzARr8Q-5" target="feKmnWWnFq79KnzARr8Q-9">
          <mxGeometry width="50" height="50" relative="1" as="geometry">
            <mxPoint x="610" y="480" as="sourcePoint" />
            <mxPoint x="660" y="430" as="targetPoint" />
          </mxGeometry>
        </mxCell>
      </root>
    </mxGraphModel>
  </diagram>
</mxfile>
